# xmcd
#
# Track frame offsets:
#	150
#	15628
#	30924
#	44997
#	64605
#	79958
#	94304
#	105903
#	121565
#	145570
#	161469
#	182110
#	196409
#	216387
#
# Disc length: 3110 seconds
#
# Revision: 2
# Processed by: cddbd v1.5.2PL0 Copyright (c) Steve Scherf et al.
# Submitted via: audiograbber 1.83.01
#
DISCID=b60c240e
DTITLE=Various Artist - Country Strong - CD1
DYEAR=2010
DGENRE=Soundtrack
TTITLE0=Garrett Hedlund - Timing is Everything
TTITLE1=Garrett Hedlund - Silver Wings
TTITLE2=Garrett Hedlund - Turn Loose the Horses
TTITLE3=Garth Brooks - Friends in Low Places
TTITLE4=Leighton Meester - Summer Girl
TTITLE5=Garrett Hedlund - Hard Out Here
TTITLE6=Don Gibson - Sea Of Heartbreak
TTITLE7=Garrett Hedlund - Chances Are
TTITLE8=Leighton Meester - A Little Bit Stronger
TTITLE9=Garrett Hedlund - Give In To Me
TTITLE10=Gwyneth Paltrow - A Fighter
TTITLE11=Garrett Hedlund - Hide Me Babe
TTITLE12=Leighton Meester - Words I Couldn't Say
TTITLE13=Gwyneth Paltrow - Country Strong
EXTD=
EXTT0=
EXTT1=
EXTT2=
EXTT3=
EXTT4=
EXTT5=
EXTT6=
EXTT7=
EXTT8=
EXTT9=
EXTT10=
EXTT11=
EXTT12=
EXTT13=
PLAYORDER=
